<?xml version="1.0" encoding="utf-8"?>
<!-- Generator: Adobe Illustrator 15.0.0, SVG Export Plug-In . SVG Version: 6.00 Build 0)  -->
<!DOCTYPE svg PUBLIC "-//W3C//DTD SVG 1.0//EN" "http://www.w3.org/TR/2001/REC-SVG-20010904/DTD/svg10.dtd" [
	<!ENTITY ns_extend "http://ns.adobe.com/Extensibility/1.0/">
	<!ENTITY ns_ai "http://ns.adobe.com/AdobeIllustrator/10.0/">
	<!ENTITY ns_graphs "http://ns.adobe.com/Graphs/1.0/">
	<!ENTITY ns_vars "http://ns.adobe.com/Variables/1.0/">
	<!ENTITY ns_imrep "http://ns.adobe.com/ImageReplacement/1.0/">
	<!ENTITY ns_sfw "http://ns.adobe.com/SaveForWeb/1.0/">
	<!ENTITY ns_custom "http://ns.adobe.com/GenericCustomNamespace/1.0/">
	<!ENTITY ns_adobe_xpath "http://ns.adobe.com/XPath/1.0/">
]>
<svg xmlns="http://www.w3.org/2000/svg" version="1.1" width="540" height="395"><defs><clipPath id="highcharts-15"><rect x="0" y="0" width="420" height="320" fill="none"/></clipPath></defs><rect x="0" y="0" width="540" height="400" rx="5" ry="5" fill="#FFFFFF" stroke="#ffffff" stroke-width="0"/><g class="highcharts-grid" zIndex="1"><path d="M 60.25 20 L 60.25 340" fill="none" stroke="#E0E0E0" stroke-width="0.5" stroke-dasharray="2,1.5"/><path d="M 68.25 20 L 68.25 340" fill="none" stroke="#E0E0E0" stroke-width="0.5" stroke-dasharray="2,1.5"/><path d="M 76.25 20 L 76.25 340" fill="none" stroke="#E0E0E0" stroke-width="0.5" stroke-dasharray="2,1.5"/><path d="M 83.25 20 L 83.25 340" fill="none" stroke="#E0E0E0" stroke-width="0.5" stroke-dasharray="2,1.5"/><path d="M 91.25 20 L 91.25 340" fill="none" stroke="#E0E0E0" stroke-width="0.5" stroke-dasharray="2,1.5"/><path d="M 99.25 20 L 99.25 340" fill="none" stroke="#E0E0E0" stroke-width="0.5" stroke-dasharray="2,1.5"/><path d="M 107.25 20 L 107.25 340" fill="none" stroke="#E0E0E0" stroke-width="0.5" stroke-dasharray="2,1.5"/><path d="M 114.25 20 L 114.25 340" fill="none" stroke="#E0E0E0" stroke-width="0.5" stroke-dasharray="2,1.5"/><path fill="none" stroke="#E0E0E0" stroke-width="0.5" stroke-dasharray="2,1.5" d="M 122.25 20 L 122.25 340"/><path fill="none" stroke="#E0E0E0" stroke-width="0.5" stroke-dasharray="2,1.5" d="M 130.25 20 L 130.25 340"/><path fill="none" stroke="#E0E0E0" stroke-width="0.5" stroke-dasharray="2,1.5" d="M 138.25 20 L 138.25 340"/><path fill="none" stroke="#E0E0E0" stroke-width="0.5" stroke-dasharray="2,1.5" d="M 146.25 20 L 146.25 340"/><path fill="none" stroke="#E0E0E0" stroke-width="0.5" stroke-dasharray="2,1.5" d="M 153.25 20 L 153.25 340"/><path fill="none" stroke="#E0E0E0" stroke-width="0.5" stroke-dasharray="2,1.5" d="M 161.25 20 L 161.25 340"/><path fill="none" stroke="#E0E0E0" stroke-width="0.5" stroke-dasharray="2,1.5" d="M 169.25 20 L 169.25 340"/><path fill="none" stroke="#E0E0E0" stroke-width="0.5" stroke-dasharray="2,1.5" d="M 177.25 20 L 177.25 340"/><path fill="none" stroke="#E0E0E0" stroke-width="0.5" stroke-dasharray="2,1.5" d="M 184.25 20 L 184.25 340"/><path fill="none" stroke="#E0E0E0" stroke-width="0.5" stroke-dasharray="2,1.5" d="M 192.25 20 L 192.25 340"/><path fill="none" stroke="#E0E0E0" stroke-width="0.5" stroke-dasharray="2,1.5" d="M 200.25 20 L 200.25 340"/><path fill="none" stroke="#E0E0E0" stroke-width="0.5" stroke-dasharray="2,1.5" d="M 208.25 20 L 208.25 340"/><path fill="none" stroke="#E0E0E0" stroke-width="0.5" stroke-dasharray="2,1.5" d="M 216.25 20 L 216.25 340"/><path fill="none" stroke="#E0E0E0" stroke-width="0.5" stroke-dasharray="2,1.5" d="M 223.25 20 L 223.25 340"/><path fill="none" stroke="#E0E0E0" stroke-width="0.5" stroke-dasharray="2,1.5" d="M 231.25 20 L 231.25 340"/><path fill="none" stroke="#E0E0E0" stroke-width="0.5" stroke-dasharray="2,1.5" d="M 239.25 20 L 239.25 340"/><path fill="none" stroke="#E0E0E0" stroke-width="0.5" stroke-dasharray="2,1.5" d="M 247.25 20 L 247.25 340"/><path fill="none" stroke="#E0E0E0" stroke-width="0.5" stroke-dasharray="2,1.5" d="M 254.25 20 L 254.25 340"/><path fill="none" stroke="#E0E0E0" stroke-width="0.5" stroke-dasharray="2,1.5" d="M 262.25 20 L 262.25 340"/><path fill="none" stroke="#E0E0E0" stroke-width="0.5" stroke-dasharray="2,1.5" d="M 270.25 20 L 270.25 340"/><path fill="none" stroke="#E0E0E0" stroke-width="0.5" stroke-dasharray="2,1.5" d="M 278.25 20 L 278.25 340"/><path fill="none" stroke="#E0E0E0" stroke-width="0.5" stroke-dasharray="2,1.5" d="M 286.25 20 L 286.25 340"/><path fill="none" stroke="#E0E0E0" stroke-width="0.5" stroke-dasharray="2,1.5" d="M 293.25 20 L 293.25 340"/><path fill="none" stroke="#E0E0E0" stroke-width="0.5" stroke-dasharray="2,1.5" d="M 301.25 20 L 301.25 340"/><path fill="none" stroke="#E0E0E0" stroke-width="0.5" stroke-dasharray="2,1.5" d="M 309.25 20 L 309.25 340"/><path fill="none" stroke="#E0E0E0" stroke-width="0.5" stroke-dasharray="2,1.5" d="M 317.25 20 L 317.25 340"/><path fill="none" stroke="#E0E0E0" stroke-width="0.5" stroke-dasharray="2,1.5" d="M 324.25 20 L 324.25 340"/><path fill="none" stroke="#E0E0E0" stroke-width="0.5" stroke-dasharray="2,1.5" d="M 332.25 20 L 332.25 340"/><path fill="none" stroke="#E0E0E0" stroke-width="0.5" stroke-dasharray="2,1.5" d="M 340.25 20 L 340.25 340"/><path fill="none" stroke="#E0E0E0" stroke-width="0.5" stroke-dasharray="2,1.5" d="M 348.25 20 L 348.25 340"/><path fill="none" stroke="#E0E0E0" stroke-width="0.5" stroke-dasharray="2,1.5" d="M 356.25 20 L 356.25 340"/><path fill="none" stroke="#E0E0E0" stroke-width="0.5" stroke-dasharray="2,1.5" d="M 363.25 20 L 363.25 340"/><path fill="none" stroke="#E0E0E0" stroke-width="0.5" stroke-dasharray="2,1.5" d="M 371.25 20 L 371.25 340"/><path fill="none" stroke="#E0E0E0" stroke-width="0.5" stroke-dasharray="2,1.5" d="M 379.25 20 L 379.25 340"/><path fill="none" stroke="#E0E0E0" stroke-width="0.5" stroke-dasharray="2,1.5" d="M 387.25 20 L 387.25 340"/><path fill="none" stroke="#E0E0E0" stroke-width="0.5" stroke-dasharray="2,1.5" d="M 394.25 20 L 394.25 340"/><path fill="none" stroke="#E0E0E0" stroke-width="0.5" stroke-dasharray="2,1.5" d="M 402.25 20 L 402.25 340"/><path fill="none" stroke="#E0E0E0" stroke-width="0.5" stroke-dasharray="2,1.5" d="M 410.25 20 L 410.25 340"/><path fill="none" stroke="#E0E0E0" stroke-width="0.5" stroke-dasharray="2,1.5" d="M 418.25 20 L 418.25 340"/><path fill="none" stroke="#E0E0E0" stroke-width="0.5" stroke-dasharray="2,1.5" d="M 426.25 20 L 426.25 340"/><path fill="none" stroke="#E0E0E0" stroke-width="0.5" stroke-dasharray="2,1.5" d="M 433.25 20 L 433.25 340"/><path fill="none" stroke="#E0E0E0" stroke-width="0.5" stroke-dasharray="2,1.5" d="M 441.25 20 L 441.25 340"/><path fill="none" stroke="#E0E0E0" stroke-width="0.5" stroke-dasharray="2,1.5" d="M 449.25 20 L 449.25 340"/><path fill="none" stroke="#E0E0E0" stroke-width="0.5" stroke-dasharray="2,1.5" d="M 457.25 20 L 457.25 340"/><path fill="none" stroke="#E0E0E0" stroke-width="0.5" stroke-dasharray="2,1.5" d="M 464.25 20 L 464.25 340"/><path fill="none" stroke="#E0E0E0" stroke-width="0.5" stroke-dasharray="2,1.5" d="M 472.25 20 L 472.25 340"/><path fill="none" stroke="#E0E0E0" stroke-width="0.5" stroke-dasharray="2,1.5" d="M 480.25 20 L 480.25 340"/><path d="M 60.25 20 L 60.25 340" fill="none" stroke="#C0C0C0" stroke-width="0.5" stroke-dasharray="NaN"/><path d="M 99.25 20 L 99.25 340" fill="none" stroke="#C0C0C0" stroke-width="0.5" stroke-dasharray="NaN"/><path fill="none" stroke="#C0C0C0" stroke-width="0.5" stroke-dasharray="NaN" d="M 138.25 20 L 138.25 340"/><path fill="none" stroke="#C0C0C0" stroke-width="0.5" stroke-dasharray="NaN" d="M 177.25 20 L 177.25 340"/><path fill="none" stroke="#C0C0C0" stroke-width="0.5" stroke-dasharray="NaN" d="M 216.25 20 L 216.25 340"/><path fill="none" stroke="#C0C0C0" stroke-width="0.5" stroke-dasharray="NaN" d="M 254.25 20 L 254.25 340"/><path fill="none" stroke="#C0C0C0" stroke-width="0.5" stroke-dasharray="NaN" d="M 293.25 20 L 293.25 340"/><path fill="none" stroke="#C0C0C0" stroke-width="0.5" stroke-dasharray="NaN" d="M 332.25 20 L 332.25 340"/><path fill="none" stroke="#C0C0C0" stroke-width="0.5" stroke-dasharray="NaN" d="M 371.25 20 L 371.25 340"/><path fill="none" stroke="#C0C0C0" stroke-width="0.5" stroke-dasharray="NaN" d="M 410.25 20 L 410.25 340"/><path fill="none" stroke="#C0C0C0" stroke-width="0.5" stroke-dasharray="NaN" d="M 449.25 20 L 449.25 340"/></g><g class="highcharts-grid" zIndex="1"><path d="M 60 340.25 L 480 340.25" fill="none" stroke="#E0E0E0" stroke-width="0.5" stroke-dasharray="2,1.5"/><path d="M 60 324.25 L 480 324.25" fill="none" stroke="#E0E0E0" stroke-width="0.5" stroke-dasharray="2,1.5"/><path d="M 60 308.25 L 480 308.25" fill="none" stroke="#E0E0E0" stroke-width="0.5" stroke-dasharray="2,1.5"/><path d="M 60 292.25 L 480 292.25" fill="none" stroke="#E0E0E0" stroke-width="0.5" stroke-dasharray="2,1.5"/><path d="M 60 276.25 L 480 276.25" fill="none" stroke="#E0E0E0" stroke-width="0.5" stroke-dasharray="2,1.5"/><path d="M 60 260.25 L 480 260.25" fill="none" stroke="#E0E0E0" stroke-width="0.5" stroke-dasharray="2,1.5"/><path d="M 60 244.25 L 480 244.25" fill="none" stroke="#E0E0E0" stroke-width="0.5" stroke-dasharray="2,1.5"/><path d="M 60 228.25 L 480 228.25" fill="none" stroke="#E0E0E0" stroke-width="0.5" stroke-dasharray="2,1.5"/><path d="M 60 212.25 L 480 212.25" fill="none" stroke="#E0E0E0" stroke-width="0.5" stroke-dasharray="2,1.5"/><path d="M 60 196.25 L 480 196.25" fill="none" stroke="#E0E0E0" stroke-width="0.5" stroke-dasharray="2,1.5"/><path d="M 60 180.25 L 480 180.25" fill="none" stroke="#E0E0E0" stroke-width="0.5" stroke-dasharray="2,1.5"/><path d="M 60 164.25 L 480 164.25" fill="none" stroke="#E0E0E0" stroke-width="0.5" stroke-dasharray="2,1.5"/><path d="M 60 148.25 L 480 148.25" fill="none" stroke="#E0E0E0" stroke-width="0.5" stroke-dasharray="2,1.5"/><path d="M 60 132.25 L 480 132.25" fill="none" stroke="#E0E0E0" stroke-width="0.5" stroke-dasharray="2,1.5"/><path d="M 60 116.25 L 480 116.25" fill="none" stroke="#E0E0E0" stroke-width="0.5" stroke-dasharray="2,1.5"/><path d="M 60 100.25 L 480 100.25" fill="none" stroke="#E0E0E0" stroke-width="0.5" stroke-dasharray="2,1.5"/><path d="M 60 84.25 L 480 84.25" fill="none" stroke="#E0E0E0" stroke-width="0.5" stroke-dasharray="2,1.5"/><path d="M 60 68.25 L 480 68.25" fill="none" stroke="#E0E0E0" stroke-width="0.5" stroke-dasharray="2,1.5"/><path d="M 60 52.25 L 480 52.25" fill="none" stroke="#E0E0E0" stroke-width="0.5" stroke-dasharray="2,1.5"/><path d="M 60 36.25 L 480 36.25" fill="none" stroke="#E0E0E0" stroke-width="0.5" stroke-dasharray="2,1.5"/><path d="M 60 340.25 L 480 340.25" fill="none" stroke="#C0C0C0" stroke-width="0.5" stroke-dasharray="NaN"/><path d="M 60 260.25 L 480 260.25" fill="none" stroke="#C0C0C0" stroke-width="0.5" stroke-dasharray="NaN"/><path d="M 60 180.25 L 480 180.25" fill="none" stroke="#C0C0C0" stroke-width="0.5" stroke-dasharray="NaN"/><path d="M 60 100.25 L 480 100.25" fill="none" stroke="#C0C0C0" stroke-width="0.5" stroke-dasharray="NaN"/><path d="M 60 20.25 L 480 20.25" fill="none" stroke="#C0C0C0" stroke-width="0.5" stroke-dasharray="NaN"/></g><g class="highcharts-series-group" zIndex="3"><g class="highcharts-series" clip-path="url(http://global.espa.com/es_es/productos/productos-por-gamas/suministro/bombas-de-presurizacion-horizontales/prisma/prisma-25/#highcharts-15)" visibility="visible" transform="translate(60,20)"><path d="M 39.99999999999999 169.5559168248 C 39.99999999999999 169.5559168248 52 164.73581870656 60 161.5856445208 C 68 158.43547033504 71.99999999999999 156.87935061008 79.99999999999999 153.805045896 C 87.99999999999997 150.73074118192 91.99999999999997 149.21255619296002 99.99999999999999 146.2141209504 C 108 143.21568570784 112 141.7354354544 120 138.8128696832 C 128 135.890303912 132 134.44798839408 140 131.6012920944 C 148 128.75459579472 151.99999999999997 127.35021501295999 159.99999999999997 124.5793881848 C 167.99999999999997 121.80856135664001 172 120.44211531024 180 117.74715795360001 C 188 115.05220059696 191.99999999999997 113.72368928656002 199.99999999999997 111.10460140160001 C 207.99999999999994 108.48551351664001 211.99999999999994 107.19493694224 219.99999999999997 104.65171852879999 C 228 102.10850011535999 232 100.85585827647996 240 98.38850933439997 C 248 95.92116039231996 251.99999999999994 94.70645328895999 259.99999999999994 92.3149738184 C 267.99999999999994 89.92349434784 272 88.74672198047999 280 86.4311119816 C 288 84.11550198271999 292 82.97666435136001 300 80.736923824 C 308 78.49718329664 311.99999999999994 77.39628040064001 319.99999999999994 75.2324093448 C 327.99999999999994 73.06853828896001 332 72.00557012911999 340 69.91756854479999 C 348 67.82956696048 352 66.80453353616 360 64.7924014232 C 368 62.780269310240016 371.99999999999994 61.79317062128002 379.99999999999994 59.85690798000002 C 387.9999999999999 57.92064533872002 399.99999999999994 55.1110882168 399.99999999999994 55.1110882168" fill="none" stroke="#005386" stroke-width="2"/><circle cx="0" cy="0" r="5" stroke="#FFFFFF" stroke-width="0.5" fill="#005386" transform="translate(99.99999999999999,146.2141209504)" visibility="hidden"/></g></g><g class="highcharts-highcharts-data-labels" visibility="visible" zIndex="5" transform="translate(60,20)"/><g class="highcharts-axis" zIndex="7"><text x="60" y="360" style="font-family:&quot;Lucida Grande&quot;, &quot;Lucida Sans Unicode&quot;, Verdana, Arial, Helvetica, sans-serif;font-size:12px;color:#666;font-size:11px;line-height:14px;font-family:Arial, Helvetica, sans-serif;fill:#666;" text-anchor="middle"><tspan x="60">0</tspan></text><text x="98.88888888888889" y="360" style="font-family:&quot;Lucida Grande&quot;, &quot;Lucida Sans Unicode&quot;, Verdana, Arial, Helvetica, sans-serif;font-size:12px;color:#666;font-size:11px;line-height:14px;font-family:Arial, Helvetica, sans-serif;fill:#666;" text-anchor="middle"><tspan x="98.88888888888889">0,7</tspan></text><text x="137.77777777777777" y="360" style="font-family:&quot;Lucida Grande&quot;, &quot;Lucida Sans Unicode&quot;, Verdana, Arial, Helvetica, sans-serif;font-size:12px;color:#666;font-size:11px;line-height:14px;font-family:Arial, Helvetica, sans-serif;fill:#666;" text-anchor="middle"><tspan x="137.77777777777777">1,4</tspan></text><text x="176.66666666666663" y="360" style="font-family:&quot;Lucida Grande&quot;, &quot;Lucida Sans Unicode&quot;, Verdana, Arial, Helvetica, sans-serif;font-size:12px;color:#666;font-size:11px;line-height:14px;font-family:Arial, Helvetica, sans-serif;fill:#666;" text-anchor="middle"><tspan x="176.66666666666663">2,1</tspan></text><text x="215.55555555555554" y="360" style="font-family:&quot;Lucida Grande&quot;, &quot;Lucida Sans Unicode&quot;, Verdana, Arial, Helvetica, sans-serif;font-size:12px;color:#666;font-size:11px;line-height:14px;font-family:Arial, Helvetica, sans-serif;fill:#666;" text-anchor="middle"><tspan x="215.55555555555554">2,8</tspan></text><text x="254.44444444444443" y="360" style="font-family:&quot;Lucida Grande&quot;, &quot;Lucida Sans Unicode&quot;, Verdana, Arial, Helvetica, sans-serif;font-size:12px;color:#666;font-size:11px;line-height:14px;font-family:Arial, Helvetica, sans-serif;fill:#666;" text-anchor="middle"><tspan x="254.44444444444443">3,5</tspan></text><text x="293.3333333333333" y="360" style="font-family:&quot;Lucida Grande&quot;, &quot;Lucida Sans Unicode&quot;, Verdana, Arial, Helvetica, sans-serif;font-size:12px;color:#666;font-size:11px;line-height:14px;font-family:Arial, Helvetica, sans-serif;fill:#666;" text-anchor="middle"><tspan x="293.3333333333333">4,2</tspan></text><text x="332.22222222222223" y="360" style="font-family:&quot;Lucida Grande&quot;, &quot;Lucida Sans Unicode&quot;, Verdana, Arial, Helvetica, sans-serif;font-size:12px;color:#666;font-size:11px;line-height:14px;font-family:Arial, Helvetica, sans-serif;fill:#666;" text-anchor="middle"><tspan x="332.22222222222223">4,9</tspan></text><text x="371.1111111111111" y="360" style="font-family:&quot;Lucida Grande&quot;, &quot;Lucida Sans Unicode&quot;, Verdana, Arial, Helvetica, sans-serif;font-size:12px;color:#666;font-size:11px;line-height:14px;font-family:Arial, Helvetica, sans-serif;fill:#666;" text-anchor="middle"><tspan x="371.1111111111111">5,6</tspan></text><text x="410" y="360" style="font-family:&quot;Lucida Grande&quot;, &quot;Lucida Sans Unicode&quot;, Verdana, Arial, Helvetica, sans-serif;font-size:12px;color:#666;font-size:11px;line-height:14px;font-family:Arial, Helvetica, sans-serif;fill:#666;" text-anchor="middle"><tspan x="410">6,3</tspan></text><text x="448.8888888888889" y="360" style="font-family:&quot;Lucida Grande&quot;, &quot;Lucida Sans Unicode&quot;, Verdana, Arial, Helvetica, sans-serif;font-size:12px;color:#666;font-size:11px;line-height:14px;font-family:Arial, Helvetica, sans-serif;fill:#666;" text-anchor="middle"><tspan x="448.8888888888889">7,0</tspan></text><path d="M 60.25 340 L 60.25 343" fill="none" stroke="#A0A0A0" stroke-width="0.5"/><path d="M 68.25 340 L 68.25 343" fill="none" stroke="#A0A0A0" stroke-width="0.5"/><path d="M 76.25 340 L 76.25 343" fill="none" stroke="#A0A0A0" stroke-width="0.5"/><path d="M 83.25 340 L 83.25 343" fill="none" stroke="#A0A0A0" stroke-width="0.5"/><path d="M 91.25 340 L 91.25 343" fill="none" stroke="#A0A0A0" stroke-width="0.5"/><path d="M 99.25 340 L 99.25 343" fill="none" stroke="#A0A0A0" stroke-width="0.5"/><path d="M 107.25 340 L 107.25 343" fill="none" stroke="#A0A0A0" stroke-width="0.5"/><path d="M 114.25 340 L 114.25 343" fill="none" stroke="#A0A0A0" stroke-width="0.5"/><path d="M 122.25 340 L 122.25 343" fill="none" stroke="#A0A0A0" stroke-width="0.5"/><path d="M 130.25 340 L 130.25 343" fill="none" stroke="#A0A0A0" stroke-width="0.5"/><path d="M 138.25 340 L 138.25 343" fill="none" stroke="#A0A0A0" stroke-width="0.5"/><path d="M 146.25 340 L 146.25 343" fill="none" stroke="#A0A0A0" stroke-width="0.5"/><path d="M 153.25 340 L 153.25 343" fill="none" stroke="#A0A0A0" stroke-width="0.5"/><path d="M 161.25 340 L 161.25 343" fill="none" stroke="#A0A0A0" stroke-width="0.5"/><path d="M 169.25 340 L 169.25 343" fill="none" stroke="#A0A0A0" stroke-width="0.5"/><path d="M 177.25 340 L 177.25 343" fill="none" stroke="#A0A0A0" stroke-width="0.5"/><path d="M 184.25 340 L 184.25 343" fill="none" stroke="#A0A0A0" stroke-width="0.5"/><path d="M 192.25 340 L 192.25 343" fill="none" stroke="#A0A0A0" stroke-width="0.5"/><path d="M 200.25 340 L 200.25 343" fill="none" stroke="#A0A0A0" stroke-width="0.5"/><path d="M 208.25 340 L 208.25 343" fill="none" stroke="#A0A0A0" stroke-width="0.5"/><path d="M 216.25 340 L 216.25 343" fill="none" stroke="#A0A0A0" stroke-width="0.5"/><path d="M 223.25 340 L 223.25 343" fill="none" stroke="#A0A0A0" stroke-width="0.5"/><path d="M 231.25 340 L 231.25 343" fill="none" stroke="#A0A0A0" stroke-width="0.5"/><path d="M 239.25 340 L 239.25 343" fill="none" stroke="#A0A0A0" stroke-width="0.5"/><path d="M 247.25 340 L 247.25 343" fill="none" stroke="#A0A0A0" stroke-width="0.5"/><path d="M 254.25 340 L 254.25 343" fill="none" stroke="#A0A0A0" stroke-width="0.5"/><path d="M 262.25 340 L 262.25 343" fill="none" stroke="#A0A0A0" stroke-width="0.5"/><path d="M 270.25 340 L 270.25 343" fill="none" stroke="#A0A0A0" stroke-width="0.5"/><path d="M 278.25 340 L 278.25 343" fill="none" stroke="#A0A0A0" stroke-width="0.5"/><path d="M 286.25 340 L 286.25 343" fill="none" stroke="#A0A0A0" stroke-width="0.5"/><path d="M 293.25 340 L 293.25 343" fill="none" stroke="#A0A0A0" stroke-width="0.5"/><path d="M 301.25 340 L 301.25 343" fill="none" stroke="#A0A0A0" stroke-width="0.5"/><path d="M 309.25 340 L 309.25 343" fill="none" stroke="#A0A0A0" stroke-width="0.5"/><path d="M 317.25 340 L 317.25 343" fill="none" stroke="#A0A0A0" stroke-width="0.5"/><path d="M 324.25 340 L 324.25 343" fill="none" stroke="#A0A0A0" stroke-width="0.5"/><path d="M 332.25 340 L 332.25 343" fill="none" stroke="#A0A0A0" stroke-width="0.5"/><path d="M 340.25 340 L 340.25 343" fill="none" stroke="#A0A0A0" stroke-width="0.5"/><path d="M 348.25 340 L 348.25 343" fill="none" stroke="#A0A0A0" stroke-width="0.5"/><path d="M 356.25 340 L 356.25 343" fill="none" stroke="#A0A0A0" stroke-width="0.5"/><path d="M 363.25 340 L 363.25 343" fill="none" stroke="#A0A0A0" stroke-width="0.5"/><path d="M 371.25 340 L 371.25 343" fill="none" stroke="#A0A0A0" stroke-width="0.5"/><path d="M 379.25 340 L 379.25 343" fill="none" stroke="#A0A0A0" stroke-width="0.5"/><path d="M 387.25 340 L 387.25 343" fill="none" stroke="#A0A0A0" stroke-width="0.5"/><path d="M 394.25 340 L 394.25 343" fill="none" stroke="#A0A0A0" stroke-width="0.5"/><path d="M 402.25 340 L 402.25 343" fill="none" stroke="#A0A0A0" stroke-width="0.5"/><path d="M 410.25 340 L 410.25 343" fill="none" stroke="#A0A0A0" stroke-width="0.5"/><path d="M 418.25 340 L 418.25 343" fill="none" stroke="#A0A0A0" stroke-width="0.5"/><path d="M 426.25 340 L 426.25 343" fill="none" stroke="#A0A0A0" stroke-width="0.5"/><path d="M 433.25 340 L 433.25 343" fill="none" stroke="#A0A0A0" stroke-width="0.5"/><path d="M 441.25 340 L 441.25 343" fill="none" stroke="#A0A0A0" stroke-width="0.5"/><path d="M 449.25 340 L 449.25 343" fill="none" stroke="#A0A0A0" stroke-width="0.5"/><path d="M 457.25 340 L 457.25 343" fill="none" stroke="#A0A0A0" stroke-width="0.5"/><path d="M 464.25 340 L 464.25 343" fill="none" stroke="#A0A0A0" stroke-width="0.5"/><path d="M 472.25 340 L 472.25 343" fill="none" stroke="#A0A0A0" stroke-width="0.5"/><path d="M 480.25 340 L 480.25 343" fill="none" stroke="#A0A0A0" stroke-width="0.5"/><path d="M 60.5 340 L 60.5 345" fill="none" stroke="#C0D0E0" stroke-width="1"/><path d="M 99.5 340 L 99.5 345" fill="none" stroke="#C0D0E0" stroke-width="1"/><path d="M 138.5 340 L 138.5 345" fill="none" stroke="#C0D0E0" stroke-width="1"/><path d="M 177.5 340 L 177.5 345" fill="none" stroke="#C0D0E0" stroke-width="1"/><path d="M 216.5 340 L 216.5 345" fill="none" stroke="#C0D0E0" stroke-width="1"/><path d="M 254.5 340 L 254.5 345" fill="none" stroke="#C0D0E0" stroke-width="1"/><path d="M 293.5 340 L 293.5 345" fill="none" stroke="#C0D0E0" stroke-width="1"/><path d="M 332.5 340 L 332.5 345" fill="none" stroke="#C0D0E0" stroke-width="1"/><path d="M 371.5 340 L 371.5 345" fill="none" stroke="#C0D0E0" stroke-width="1"/><path d="M 410.5 340 L 410.5 345" fill="none" stroke="#C0D0E0" stroke-width="1"/><path d="M 449.5 340 L 449.5 345" fill="none" stroke="#C0D0E0" stroke-width="1"/></g><text x="270" y="377" style="font-family:&quot;Lucida Grande&quot;, &quot;Lucida Sans Unicode&quot;, Verdana, Arial, Helvetica, sans-serif;font-size:12px;color:#000000;font-weight:bold;font-size:12px;fill:#000000;" zIndex="7" text-anchor="middle"><tspan x="270">Caudal [m³/h]</tspan></text><g class="highcharts-axis" zIndex="7"><text x="35" y="344" style="font-family:&quot;Lucida Grande&quot;, &quot;Lucida Sans Unicode&quot;, Verdana, Arial, Helvetica, sans-serif;font-size:12px;color:#666;font-size:11px;line-height:14px;font-family:Arial, Helvetica, sans-serif;fill:#666;" text-anchor="start"><tspan x="35">0</tspan></text><text x="35" y="264" style="font-family:&quot;Lucida Grande&quot;, &quot;Lucida Sans Unicode&quot;, Verdana, Arial, Helvetica, sans-serif;font-size:12px;color:#666;font-size:11px;line-height:14px;font-family:Arial, Helvetica, sans-serif;fill:#666;" text-anchor="start"><tspan x="35">0,10</tspan></text><text x="35" y="184" style="font-family:&quot;Lucida Grande&quot;, &quot;Lucida Sans Unicode&quot;, Verdana, Arial, Helvetica, sans-serif;font-size:12px;color:#666;font-size:11px;line-height:14px;font-family:Arial, Helvetica, sans-serif;fill:#666;" text-anchor="start"><tspan x="35">0,20</tspan></text><text x="35" y="103.99999999999997" style="font-family:&quot;Lucida Grande&quot;, &quot;Lucida Sans Unicode&quot;, Verdana, Arial, Helvetica, sans-serif;font-size:12px;color:#666;font-size:11px;line-height:14px;font-family:Arial, Helvetica, sans-serif;fill:#666;" text-anchor="start"><tspan x="35">0,30</tspan></text><text x="35" y="24" style="font-family:&quot;Lucida Grande&quot;, &quot;Lucida Sans Unicode&quot;, Verdana, Arial, Helvetica, sans-serif;font-size:12px;color:#666;font-size:11px;line-height:14px;font-family:Arial, Helvetica, sans-serif;fill:#666;" text-anchor="start"><tspan x="35">0,40</tspan></text><path d="M 60 340.25 L 57 340.25" fill="none" stroke="#A0A0A0" stroke-width="0.5"/><path d="M 60 324.25 L 57 324.25" fill="none" stroke="#A0A0A0" stroke-width="0.5"/><path d="M 60 308.25 L 57 308.25" fill="none" stroke="#A0A0A0" stroke-width="0.5"/><path d="M 60 292.25 L 57 292.25" fill="none" stroke="#A0A0A0" stroke-width="0.5"/><path d="M 60 276.25 L 57 276.25" fill="none" stroke="#A0A0A0" stroke-width="0.5"/><path d="M 60 260.25 L 57 260.25" fill="none" stroke="#A0A0A0" stroke-width="0.5"/><path d="M 60 244.25 L 57 244.25" fill="none" stroke="#A0A0A0" stroke-width="0.5"/><path d="M 60 228.25 L 57 228.25" fill="none" stroke="#A0A0A0" stroke-width="0.5"/><path d="M 60 212.25 L 57 212.25" fill="none" stroke="#A0A0A0" stroke-width="0.5"/><path d="M 60 196.25 L 57 196.25" fill="none" stroke="#A0A0A0" stroke-width="0.5"/><path d="M 60 180.25 L 57 180.25" fill="none" stroke="#A0A0A0" stroke-width="0.5"/><path d="M 60 164.25 L 57 164.25" fill="none" stroke="#A0A0A0" stroke-width="0.5"/><path d="M 60 148.25 L 57 148.25" fill="none" stroke="#A0A0A0" stroke-width="0.5"/><path d="M 60 132.25 L 57 132.25" fill="none" stroke="#A0A0A0" stroke-width="0.5"/><path d="M 60 116.25 L 57 116.25" fill="none" stroke="#A0A0A0" stroke-width="0.5"/><path d="M 60 100.25 L 57 100.25" fill="none" stroke="#A0A0A0" stroke-width="0.5"/><path d="M 60 84.25 L 57 84.25" fill="none" stroke="#A0A0A0" stroke-width="0.5"/><path d="M 60 68.25 L 57 68.25" fill="none" stroke="#A0A0A0" stroke-width="0.5"/><path d="M 60 52.25 L 57 52.25" fill="none" stroke="#A0A0A0" stroke-width="0.5"/><path d="M 60 36.25 L 57 36.25" fill="none" stroke="#A0A0A0" stroke-width="0.5"/></g><text x="20" y="180" style="font-family:&quot;Lucida Grande&quot;, &quot;Lucida Sans Unicode&quot;, Verdana, Arial, Helvetica, sans-serif;font-size:12px;color:#000000;font-weight:bold;font-size:12px;fill:#000000;" zIndex="7" transform="rotate(-90 20 180)" text-anchor="middle"><tspan x="20">Potencia [kW/etapa]</tspan></text><path d="M 60 340.5 L 480 340.5" fill="none" stroke="#C0D0E0" stroke-width="1" zIndex="7"/><g class="highcharts-tooltip" zIndex="8" visibility="hidden" transform="translate(30,127)"><rect x="7" y="7" width="108" height="52" rx="5" ry="5" fill="none" fill-opacity="0.85" stroke-width="5" isShadow="true" stroke="rgb(0, 0, 0)" stroke-opacity="0.05" transform="translate(1,1)"/><rect x="7" y="7" width="108" height="52" rx="5" ry="5" fill="none" fill-opacity="0.85" stroke-width="3" isShadow="true" stroke="rgb(0, 0, 0)" stroke-opacity="0.1" transform="translate(1,1)"/><rect x="7" y="7" width="108" height="52" rx="5" ry="5" fill="none" fill-opacity="0.85" stroke-width="1" isShadow="true" stroke="rgb(0, 0, 0)" stroke-opacity="0.15000000000000002" transform="translate(1,1)"/><rect x="7" y="7" width="108" height="52" rx="5" ry="5" fill="rgb(255,255,255)" fill-opacity="0.85" stroke-width="2" stroke="#005386"/><text x="12" y="24" style="font-family:&quot;Lucida Grande&quot;, &quot;Lucida Sans Unicode&quot;, Verdana, Arial, Helvetica, sans-serif;font-size:12px;color:#222222;font-size:12px;padding:0;white-space:nowrap;font-family:Arial, Helvetica, sans-serif;fill:#222222;" zIndex="1"><tspan style="font-weight:bold" x="12">Prisma 25</tspan><tspan dy="14" x="12">x = </tspan><tspan style="font-weight:bold" dx="3">1,8</tspan><tspan dx="3"> m³/h</tspan><tspan dy="14" x="12">y = </tspan><tspan style="font-weight:bold" dx="3">0,2</tspan><tspan dx="3"> kW/etapa</tspan></text></g><g class="highcharts-tracker" zIndex="9" transform="translate(60,20)"><path d="M 29.999999999999993 169.5559168248 L 39.99999999999999 169.5559168248 C 39.99999999999999 169.5559168248 52 164.73581870656 60 161.5856445208 C 68 158.43547033504 71.99999999999999 156.87935061008 79.99999999999999 153.805045896 C 87.99999999999997 150.73074118192 91.99999999999997 149.21255619296002 99.99999999999999 146.2141209504 C 108 143.21568570784 112 141.7354354544 120 138.8128696832 C 128 135.890303912 132 134.44798839408 140 131.6012920944 C 148 128.75459579472 151.99999999999997 127.35021501295999 159.99999999999997 124.5793881848 C 167.99999999999997 121.80856135664001 172 120.44211531024 180 117.74715795360001 C 188 115.05220059696 191.99999999999997 113.72368928656002 199.99999999999997 111.10460140160001 C 207.99999999999994 108.48551351664001 211.99999999999994 107.19493694224 219.99999999999997 104.65171852879999 C 228 102.10850011535999 232 100.85585827647996 240 98.38850933439997 C 248 95.92116039231996 251.99999999999994 94.70645328895999 259.99999999999994 92.3149738184 C 267.99999999999994 89.92349434784 272 88.74672198047999 280 86.4311119816 C 288 84.11550198271999 292 82.97666435136001 300 80.736923824 C 308 78.49718329664 311.99999999999994 77.39628040064001 319.99999999999994 75.2324093448 C 327.99999999999994 73.06853828896001 332 72.00557012911999 340 69.91756854479999 C 348 67.82956696048 352 66.80453353616 360 64.7924014232 C 368 62.780269310240016 371.99999999999994 61.79317062128002 379.99999999999994 59.85690798000002 C 387.9999999999999 57.92064533872002 399.99999999999994 55.1110882168 399.99999999999994 55.1110882168 L 409.99999999999994 55.1110882168" fill="none" isTracker="true" stroke-opacity="0.000001" stroke="rgb(192,192,192)" stroke-width="22" visibility="visible" zIndex="1" style=""/></g></svg>
